<?xml version="1.0" encoding="utf-8"?>
<!-- Generator: Adobe Illustrator 12.0.0, SVG Export Plug-In . SVG Version: 6.00 Build 51448)  -->
<!DOCTYPE svg PUBLIC "-//W3C//DTD SVG 1.1//EN" "http://www.w3.org/Graphics/SVG/1.1/DTD/svg11.dtd" [
	<!ENTITY ns_svg "http://www.w3.org/2000/svg">
	<!ENTITY ns_xlink "http://www.w3.org/1999/xlink">
]>
<svg  version="1.1" id="Layer_1" xmlns="&ns_svg;" xmlns:xlink="&ns_xlink;" width="572" height="217.334"
	 viewBox="0 0 572 217.334" overflow="visible" enable-background="new 0 0 572 217.334" xml:space="preserve">
<g>
	<g>
		<rect x="22.033" y="94.516" width="368.008" height="4.14"/>
	</g>
	<polygon fill-rule="evenodd" clip-rule="evenodd" points="63.877,149.898 48.974,149.898 32.923,101.171 48.974,101.171 
		56.427,127.538 57.573,132.124 59.293,127.538 66.744,101.171 78.781,101.171 63.877,149.898 	"/>
	<path fill-rule="evenodd" clip-rule="evenodd" d="M78.208,113.784h13.758v36.114H78.208V113.784L78.208,113.784z M78.208,100.599
		h13.758v9.746H78.208V100.599L78.208,100.599z"/>
	<path fill-rule="evenodd" clip-rule="evenodd" d="M102.283,137.856c1.146,3.439,4.586,4.017,7.452,4.017
		c1.719,0,5.733,0,5.733-2.294c0-1.723-4.587-2.293-6.307-2.293c-7.453-1.146-16.05-2.293-16.05-12.042
		c0-4.01,1.72-7.449,5.159-9.167c3.438-2.293,7.451-2.868,11.464-2.868c6.878,0,14.331,2.293,16.622,9.172l-10.889,2.293
		c-1.148-2.869-3.44-3.439-6.307-3.439c-1.146,0-4.586,0.57-4.586,1.717s1.72,1.723,2.293,2.293c1.72,0,4.585,0.576,6.306,0.576
		c2.865,0.57,6.878,1.146,9.745,2.864c3.438,1.722,5.157,5.162,5.157,9.172c0,9.749-10.89,12.612-18.915,12.612
		s-15.478-2.863-17.771-10.89L102.283,137.856L102.283,137.856z"/>
	<path fill-rule="evenodd" clip-rule="evenodd" d="M149.288,149.898v-6.31l0,0c-1.721,4.587-6.307,6.88-10.892,6.88
		c-2.866,0-5.733-0.57-8.026-2.863s-2.864-5.732-2.864-9.173v-24.648h13.757v21.779c0,2.293,0,4.586,3.438,4.586
		c1.146,0,2.866-0.57,3.44-1.717c0.572-1.146,0.572-2.869,0.572-4.016v-20.633h13.758v36.114H149.288L149.288,149.898z"/>
	<path fill-rule="evenodd" clip-rule="evenodd" d="M185.973,133.847c0,3.439-0.571,8.026-5.731,8.026
		c-2.293,0-3.438-1.147-3.438-3.44c0-4.016,5.732-5.162,9.17-5.732V133.847L185.973,133.847z M200.303,149.898
		c-1.146-2.869-1.146-5.163-1.146-8.025V129.26c0-5.162,0.574-9.748-4.012-13.183c-3.439-2.293-9.173-2.868-13.186-2.868
		c-8.025,0-16.622,2.293-18.915,10.889l13.183,1.146c0-2.863,2.295-4.01,5.161-4.01c3.438,0,4.584,1.717,4.584,4.586v0.57
		c-5.157,0-9.745,0.576-14.331,2.294c-5.157,1.146-9.744,5.162-9.744,10.895c0,7.45,6.308,10.89,12.612,10.89
		c5.157,0,9.171-1.723,12.036-5.733c0,1.718,0,3.44,0.574,5.163H200.303L200.303,149.898z"/>
	<polygon fill-rule="evenodd" clip-rule="evenodd" points="200.303,101.171 214.061,101.171 214.061,149.898 200.303,149.898 
		200.303,101.171 	"/>
	<path fill-rule="evenodd" clip-rule="evenodd" d="M236.99,139.003v-8.597h5.731c1.146,0,2.866,0,4.014,0.571
		c1.72,0.576,2.865,2.293,2.865,3.439c0,1.723-1.146,2.869-2.293,3.439c-1.146,1.146-2.865,1.146-4.013,1.146H236.99L236.99,139.003
		z M223.231,149.898h22.356c4.013,0,9.172,0,13.185-2.869c3.438-2.294,4.586-7.45,4.586-11.466c0-5.732-3.44-9.743-9.173-10.89l0,0
		c5.16-1.146,8.025-5.732,8.025-10.318c0-4.011-1.719-8.025-5.158-10.318c-2.867-2.293-6.305-2.867-10.317-2.867h-23.504V149.898
		L223.231,149.898z M236.99,120.088v-8.026h5.731c2.866,0,5.733,0,5.733,4.016c0,1.147-0.574,2.294-1.72,2.864
		c-0.573,1.146-2.293,1.146-4.014,1.146H236.99L236.99,120.088z"/>
	<path fill-rule="evenodd" clip-rule="evenodd" d="M286.859,133.847c0,3.439,0,8.026-5.731,8.026c-2.295,0-3.438-1.147-3.438-3.44
		c0-4.016,5.731-5.162,9.17-5.732V133.847L286.859,133.847z M301.19,149.898c-1.146-2.869-1.146-5.163-1.146-8.025V129.26
		c0-5.162,0.573-9.748-4.013-13.183c-3.44-2.293-9.172-2.868-13.184-2.868c-8.024,0-16.623,2.293-18.916,10.889l13.185,1.146
		c0-2.863,2.293-4.01,5.158-4.01c3.439,0,4.585,1.717,4.585,4.586v0.57c-5.159,0-9.743,0.576-14.331,2.294
		c-5.158,1.146-9.17,5.162-9.17,10.895c0,7.45,5.731,10.89,12.038,10.89c5.158,0,9.171-1.723,12.037-5.733
		c0,1.718,0,3.44,0.574,5.163H301.19L301.19,149.898z"/>
	<path fill-rule="evenodd" clip-rule="evenodd" d="M310.363,137.856c0.573,3.439,4.586,4.017,8.023,4.017
		c1.146,0,5.158,0,5.158-2.294c0-1.723-5.158-2.293-6.303-2.293c-7.452-1.146-16.052-2.293-16.052-12.042
		c0-4.01,1.72-7.449,5.16-9.167c3.439-2.293,7.453-2.868,11.465-2.868c6.877,0,14.33,2.293,16.623,9.172l-10.894,2.293
		c-1.146-2.869-3.438-3.439-6.303-3.439c-1.148,0-4.586,0.57-4.586,1.717s1.717,1.723,2.293,2.293c1.717,0,4.583,0.576,6.303,0.576
		c2.867,0.57,6.881,1.146,9.746,2.864c2.866,1.722,5.159,5.162,5.159,9.172c0,9.749-10.892,12.612-18.915,12.612
		c-8.026,0-15.478-2.863-17.771-10.89L310.363,137.856L310.363,137.856z"/>
	<path fill-rule="evenodd" clip-rule="evenodd" d="M335.584,113.784h13.757v36.114h-13.757V113.784L335.584,113.784z
		 M335.584,100.599h13.757v9.746h-13.757V100.599L335.584,100.599z"/>
	<path fill-rule="evenodd" clip-rule="evenodd" d="M386.027,136.14c-1.146,9.173-8.025,14.329-17.196,14.329
		c-5.158,0-9.172-1.146-13.185-5.156c-3.44-3.439-5.16-8.603-5.16-13.759c0-10.319,7.453-18.345,18.345-18.345
		c9.171,0,16.05,5.162,17.196,14.329l-12.608,0.575l0,0c-0.577-2.869-1.15-5.162-4.014-5.162c-4.587,0-4.587,5.733-4.587,8.603
		c0,3.439,0,9.172,4.587,9.172c3.437,0,4.014-2.869,4.583-5.732L386.027,136.14L386.027,136.14z"/>
	<polygon fill-rule="evenodd" clip-rule="evenodd" points="25.473,87.989 21.459,87.989 21.459,52.448 28.339,52.448 38.656,81.109 
		49.547,52.448 55.854,52.448 55.854,87.989 51.267,87.989 51.267,57.035 51.267,57.035 39.803,87.989 36.937,87.989 25.473,57.035 
		25.473,57.035 25.473,87.989 	"/>
	<path fill-rule="evenodd" clip-rule="evenodd" d="M62.73,61.621h4.014v26.368H62.73V61.621L62.73,61.621z M62.158,52.448h4.586
		v4.587h-4.586V52.448L62.158,52.448z"/>
	<path fill-rule="evenodd" clip-rule="evenodd" d="M91.966,79.39c-0.574,5.158-4.012,9.171-9.745,9.171
		c-8.026,0-11.464-6.878-11.464-13.757c0-6.878,3.438-13.756,11.464-13.756c5.733,0,9.171,4.012,9.745,9.17l-3.439,0.574
		c-0.572-3.439-2.293-6.306-6.306-6.306c-5.732,0-6.879,5.732-6.879,10.318c0,4.013,1.146,10.319,6.879,10.319
		c3.44,0,5.733-2.867,6.306-6.306L91.966,79.39L91.966,79.39z"/>
	<path fill-rule="evenodd" clip-rule="evenodd" d="M99.416,61.621v6.304h0.575c1.146-3.439,3.438-6.877,7.451-6.877h1.72v4.012
		h-1.146c-2.866,0-5.158,1.719-6.879,4.013c-0.572,2.293-1.146,3.438-1.146,5.731v13.186h-4.013V61.621H99.416L99.416,61.621z"/>
	<path fill-rule="evenodd" clip-rule="evenodd" d="M121.199,85.122c-2.293,0-4.586-1.146-5.73-3.439
		c-1.148-1.72-1.722-4.587-1.722-6.879c0-2.293,0.573-4.586,1.147-6.878c1.146-2.293,3.438-3.439,6.305-3.439
		c2.294,0,4.587,1.146,5.733,2.867c1.145,2.293,1.718,5.158,1.718,7.451c0,2.292-0.573,4.586-1.718,6.879
		C125.786,83.976,123.493,85.122,121.199,85.122L121.199,85.122z M120.627,88.561c8.023,0,12.036-6.305,12.036-13.757
		c0-6.878-3.438-13.756-11.464-13.756c-7.452,0-12.037,6.305-12.037,13.756C109.162,81.683,112.602,88.561,120.627,88.561
		L120.627,88.561z"/>
	<path fill-rule="evenodd" clip-rule="evenodd" d="M139.543,80.536c0.573,3.439,4.587,4.586,8.024,4.586
		c2.867,0,6.307-1.146,6.307-4.013c0-2.866-2.867-4.013-5.16-4.013l-4.013-1.146c-4.013-0.573-8.024-2.291-8.024-6.877
		c0-5.733,5.159-8.025,9.744-8.025c5.16,0,9.171,1.718,10.319,6.877l-3.439,0.574c-1.147-2.867-4.013-4.013-6.88-4.013
		c-2.291,0-5.732,0.574-5.732,4.013c0,2.293,2.866,3.439,5.159,3.439l3.44,0.572c2.293,0.573,4.013,1.148,5.73,2.293
		c2.293,1.146,2.866,3.44,2.866,5.733c0,5.732-5.731,8.024-10.891,8.024c-5.158,0-9.744-2.292-11.464-7.452L139.543,80.536
		L139.543,80.536z"/>
	<path fill-rule="evenodd" clip-rule="evenodd" d="M172.791,85.122c-2.293,0-4.586-1.146-5.733-3.439
		c-1.147-1.72-1.72-4.587-1.72-6.879c0-2.293,0.572-4.586,1.146-6.878c1.146-2.293,3.438-3.439,6.307-3.439
		c2.291,0,4.584,1.146,5.731,2.867c1.145,2.293,1.719,5.158,1.719,7.451c0,2.292-0.574,4.586-1.719,6.879
		C177.375,83.976,175.655,85.122,172.791,85.122L172.791,85.122z M172.215,88.561c8.026,0,12.612-6.305,12.612-13.757
		c0-6.878-4.012-13.756-12.036-13.756c-7.453,0-12.039,6.305-12.039,13.756C160.752,81.683,164.765,88.561,172.215,88.561
		L172.215,88.561z"/>
	<path fill-rule="evenodd" clip-rule="evenodd" d="M200.876,65.059h-6.305v22.93h-4.013v-22.93h-4.586v-3.438h4.586
		c-0.573-5.16,1.72-10.319,8.024-9.746l3.44,0.573v3.44c-1.147-0.574-2.292-0.574-3.44-0.574c-4.012,0-4.012,3.439-4.012,6.306
		h6.305V65.059L200.876,65.059z"/>
	<path fill-rule="evenodd" clip-rule="evenodd" d="M215.207,88.561h-4.014c-5.729,0-7.45-3.438-7.45-8.598V65.059h-4.586v-3.438
		h4.586v-6.306l4.013-0.573v6.879h6.305v3.438h-6.305v15.477c0,3.439,1.146,4.586,4.586,4.586h2.865V88.561L215.207,88.561z"/>
	<polygon fill-rule="evenodd" clip-rule="evenodd" points="478.316,99.451 478.316,71.365 514.427,88.561 514.427,118.941 
		478.316,99.451 	"/>
	<polygon fill-rule="evenodd" clip-rule="evenodd" fill="#952781" points="481.183,97.16 481.183,74.803 513.281,90.281 
		513.281,114.355 481.183,97.16 	"/>
	<polygon fill-rule="evenodd" clip-rule="evenodd" points="478.316,71.365 512.708,56.461 547.675,73.083 516.146,89.707 
		478.316,71.365 	"/>
	<polygon fill-rule="evenodd" clip-rule="evenodd" fill="#952781" points="484.047,71.938 512.137,59.899 541.942,73.658 
		515.001,87.414 484.047,71.938 	"/>
	<polygon fill-rule="evenodd" clip-rule="evenodd" points="513.856,89.134 514.427,118.941 548.248,102.317 547.675,73.083 
		513.856,89.134 	"/>
	<polygon fill-rule="evenodd" clip-rule="evenodd" fill="#952781" points="517.294,90.281 517.294,114.355 544.808,100.599 
		544.808,75.949 517.294,90.281 	"/>
	<polygon fill-rule="evenodd" clip-rule="evenodd" points="426.728,70.217 426.728,42.13 462.838,59.328 462.838,89.707 
		426.728,70.217 	"/>
	<polygon fill-rule="evenodd" clip-rule="evenodd" fill="#6483C0" points="429.594,67.925 429.594,45.569 461.692,61.047 
		461.692,85.696 429.594,67.925 	"/>
	<polygon fill-rule="evenodd" clip-rule="evenodd" points="426.728,42.13 461.117,27.8 496.085,43.851 464.558,60.473 
		426.728,42.13 	"/>
	<polygon fill-rule="evenodd" clip-rule="evenodd" fill="#6483C0" points="432.456,42.704 460.545,30.667 490.354,44.423 
		463.412,58.181 432.456,42.704 	"/>
	<polygon fill-rule="evenodd" clip-rule="evenodd" points="462.265,59.899 462.838,89.707 496.659,73.083 496.085,43.851 
		462.265,59.899 	"/>
	<polygon fill-rule="evenodd" clip-rule="evenodd" fill="#6483C0" points="465.705,61.047 465.705,85.122 493.219,71.365 
		493.219,47.289 465.705,61.047 	"/>
	<polygon fill-rule="evenodd" clip-rule="evenodd" points="377.429,97.732 377.429,69.645 412.969,86.841 413.542,117.225 
		377.429,97.732 	"/>
	<polygon fill-rule="evenodd" clip-rule="evenodd" fill="#D87B30" points="380.295,95.439 380.295,73.083 412.396,88.561 
		412.396,112.638 380.295,95.439 	"/>
	<polygon fill-rule="evenodd" clip-rule="evenodd" points="377.429,69.645 411.821,54.742 446.788,71.365 414.688,87.989 
		377.429,69.645 	"/>
	<polygon fill-rule="evenodd" clip-rule="evenodd" fill="#D87B30" points="382.588,70.217 411.249,58.181 441.057,71.938 
		414.114,85.696 382.588,70.217 	"/>
	<polygon fill-rule="evenodd" clip-rule="evenodd" points="412.969,87.414 413.542,117.225 447.363,100.599 446.788,71.365 
		412.969,87.414 	"/>
	<polygon fill-rule="evenodd" clip-rule="evenodd" fill="#D87B30" points="415.834,88.561 416.409,112.638 443.923,98.878 
		443.35,74.23 415.834,88.561 	"/>
	<polygon fill-rule="evenodd" clip-rule="evenodd" points="429.594,101.744 429.594,73.658 465.131,90.854 465.705,121.805 
		429.594,101.744 	"/>
	<polygon fill-rule="evenodd" clip-rule="evenodd" fill="#E0D400" points="432.456,100.026 432.456,77.096 464.558,92.574 
		464.558,117.225 432.456,100.026 	"/>
	<polygon fill-rule="evenodd" clip-rule="evenodd" points="429.594,73.658 463.984,59.328 498.952,75.376 466.851,92 
		429.594,73.658 	"/>
	<polygon fill-rule="evenodd" clip-rule="evenodd" fill="#E0D400" points="434.751,74.803 463.412,62.766 493.219,76.523 
		465.705,89.707 434.751,74.803 	"/>
	<polygon fill-rule="evenodd" clip-rule="evenodd" points="465.131,91.426 465.705,121.805 498.952,104.61 498.952,75.376 
		465.131,91.426 	"/>
	<polygon fill-rule="evenodd" clip-rule="evenodd" fill="#E0D400" points="467.998,92.574 468.57,116.648 496.085,103.464 
		495.512,78.816 467.998,92.574 	"/>
	<path fill-rule="evenodd" clip-rule="evenodd" d="M222.087,56.461c2.293,0,4.586,1.72,4.586,4.586c0,2.292-2.293,4.012-4.586,4.012
		c-2.867,0-4.586-1.72-4.586-4.012C217.501,58.181,219.22,56.461,222.087,56.461L222.087,56.461z M222.087,66.206
		c2.866,0,5.157-2.293,5.157-5.158c0-3.441-2.291-5.733-5.157-5.733c-3.44,0-5.733,2.292-5.733,5.733
		C216.354,63.913,218.646,66.206,222.087,66.206L222.087,66.206z M222.66,61.047c1.146,0,2.293-0.575,2.293-1.72
		c0-0.574-0.573-1.146-1.146-1.146c0-0.575-0.575-0.575-1.146-0.575h-2.866v6.307h1.146v-2.865h1.147l1.72,2.865h0.573
		L222.66,61.047L222.66,61.047z M220.939,60.473v-1.719h1.721c0.571,0,1.146,0,1.146,0.574c0,1.145-1.146,1.145-2.293,1.145H220.939
		L220.939,60.473z"/>
	<path fill-rule="evenodd" clip-rule="evenodd" d="M395.773,115.502c2.293,0,4.012,1.723,4.012,4.01
		c0,2.293-1.719,4.586-4.012,4.586c-2.867,0-4.587-2.293-4.587-4.586C391.187,117.225,392.906,115.502,395.773,115.502
		L395.773,115.502z M395.773,125.244c2.863,0,5.156-2.863,5.156-5.732c0-2.863-2.293-5.156-5.156-5.156
		c-3.439,0-5.732,2.293-5.732,5.156C390.041,122.381,392.334,125.244,395.773,125.244L395.773,125.244z M396.347,120.088
		c1.146,0,1.72-0.576,1.72-1.717c0-0.576,0-1.146-0.574-1.723c-0.572,0-1.146,0-1.146,0h-2.867v5.732h0.574v-2.293h1.146
		l1.721,2.293h1.146L396.347,120.088L396.347,120.088z M394.054,118.941v-1.717h1.72c1.146,0,1.719,0,1.719,1.146
		c0,1.141-1.146,0.57-2.293,0.57H394.054L394.054,118.941z"/>
	<polygon fill-rule="evenodd" clip-rule="evenodd" points="539.649,116.077 539.649,110.345 537.929,110.345 537.929,109.769 
		542.515,109.769 542.515,110.345 540.222,110.345 540.222,116.077 539.649,116.077 	"/>
	<polygon fill-rule="evenodd" clip-rule="evenodd" points="544.808,116.077 544.235,116.077 544.235,109.769 545.382,109.769 
		547.101,114.931 549.394,109.769 550.541,109.769 550.541,116.077 549.394,116.077 549.394,110.345 547.675,116.077 
		547.101,116.077 544.808,110.345 544.808,110.345 544.808,116.077 	"/>
	<g>
		<path d="M220.142,181.784v-16.319h-2.621v-2.622h2.621v-0.899c0-2.661,0.625-5.089,2.23-6.615
			c1.292-1.252,3.013-1.762,4.578-1.762c1.253,0,2.27,0.275,2.937,0.548l-0.432,2.663c-0.548-0.234-1.212-0.432-2.231-0.432
			c-2.896,0-3.677,2.584-3.677,5.479v1.018h4.579v2.622h-4.541v16.319H220.142z"/>
		<path d="M239.473,182.213c-5.087,0-9.078-3.756-9.078-9.741c0-6.342,4.187-10.058,9.391-10.058c5.441,0,9.121,3.951,9.121,9.705
			c0,7.043-4.892,10.094-9.394,10.094H239.473z M239.59,179.632c3.289,0,5.754-3.092,5.754-7.396c0-3.211-1.605-7.241-5.674-7.241
			c-4.032,0-5.792,3.757-5.792,7.358c0,4.148,2.349,7.278,5.674,7.278H239.59z"/>
		<path d="M254.268,168.752c0-2.231-0.038-4.148-0.157-5.909h3.014l0.156,3.719h0.117c0.861-2.545,2.975-4.147,5.284-4.147
			c0.353,0,0.625,0.038,0.938,0.114v3.21c-0.391-0.038-0.743-0.08-1.214-0.08c-2.426,0-4.147,1.841-4.618,4.385
			c-0.077,0.509-0.117,1.058-0.117,1.646v10.096h-3.441L254.268,168.752z"/>
		<path d="M281.662,173.488l-2.737,8.296h-3.522l8.96-26.377h4.11l9.003,26.377h-3.641l-2.82-8.296H281.662z M290.313,170.827
			l-2.621-7.594c-0.549-1.723-0.94-3.286-1.333-4.813h-0.117c-0.352,1.526-0.782,3.169-1.291,4.774l-2.583,7.632H290.313z"/>
		<path d="M302.094,169.025c0-2.425-0.041-4.383-0.156-6.183h3.09l0.196,3.249h0.076c1.371-2.351,3.641-3.678,6.695-3.678
			c4.618,0,8.062,3.872,8.062,9.625c0,6.812-4.187,10.174-8.612,10.174c-2.543,0-4.694-1.093-5.828-2.972h-0.081v10.293h-3.441
			V169.025z M305.535,174.075c0,0.469,0.043,0.977,0.157,1.409c0.588,2.387,2.701,4.03,5.126,4.03c3.641,0,5.754-2.975,5.754-7.316
			c0-3.799-1.955-7.048-5.595-7.048c-2.349,0-4.58,1.644-5.244,4.228c-0.079,0.47-0.198,0.979-0.198,1.408V174.075z"/>
		<path d="M325.339,169.025c0-2.425-0.041-4.383-0.156-6.183h3.091l0.197,3.249h0.076c1.369-2.351,3.64-3.678,6.693-3.678
			c4.618,0,8.062,3.872,8.062,9.625c0,6.812-4.187,10.174-8.61,10.174c-2.543,0-4.696-1.093-5.83-2.972h-0.079v10.293h-3.443
			V169.025z M328.782,174.075c0,0.469,0.041,0.977,0.155,1.409c0.588,2.387,2.701,4.03,5.127,4.03c3.64,0,5.753-2.975,5.753-7.316
			c0-3.799-1.955-7.048-5.595-7.048c-2.349,0-4.58,1.644-5.244,4.228c-0.079,0.47-0.196,0.979-0.196,1.408V174.075z"/>
		<path d="M348.586,153.997h3.441v27.787h-3.441V153.997z"/>
		<path d="M360.364,159.358c-1.289,0-2.151-1.017-2.151-2.231c0-1.21,0.9-2.189,2.229-2.189c1.332,0,2.192,0.979,2.192,2.189
			c0,1.215-0.86,2.231-2.231,2.231H360.364z M358.721,181.784v-18.941h3.443v18.941H358.721z"/>
		<path d="M382.355,181.12c-0.899,0.429-2.896,1.093-5.439,1.093c-5.714,0-9.431-3.87-9.431-9.703
			c0-5.83,3.993-10.096,10.176-10.096c2.034,0,3.837,0.508,4.773,1.017l-0.781,2.623c-0.824-0.434-2.114-0.903-3.992-0.903
			c-4.346,0-6.692,3.249-6.692,7.203c0,4.384,2.817,7.082,6.574,7.082c1.958,0,3.248-0.468,4.228-0.899L382.355,181.12z"/>
		<path d="M400.75,177.245c0,1.644,0.08,3.249,0.273,4.539h-3.089l-0.315-2.387h-0.118c-1.017,1.487-3.089,2.815-5.79,2.815
			c-3.834,0-5.792-2.698-5.792-5.438c0-4.577,4.068-7.083,11.389-7.045v-0.391c0-1.567-0.433-4.422-4.308-4.384
			c-1.799,0-3.64,0.509-4.968,1.409l-0.782-2.308c1.564-0.979,3.872-1.644,6.259-1.644c5.833,0,7.241,3.951,7.241,7.747V177.245z
			 M397.384,172.119c-3.758-0.08-8.023,0.587-8.023,4.266c0,2.27,1.488,3.286,3.211,3.286c2.505,0,4.11-1.564,4.656-3.169
			c0.118-0.353,0.156-0.745,0.156-1.098V172.119z"/>
		<path d="M411.24,158.304v4.539h4.929v2.622h-4.929v10.213c0,2.349,0.663,3.682,2.58,3.682c0.941,0,1.488-0.08,1.996-0.235
			l0.159,2.622c-0.667,0.235-1.722,0.467-3.054,0.467c-1.605,0-2.896-0.546-3.717-1.445c-0.939-1.059-1.332-2.741-1.332-4.972
			v-10.331h-2.934v-2.622h2.934v-3.484L411.24,158.304z"/>
		<path d="M422.668,159.358c-1.291,0-2.152-1.017-2.152-2.231c0-1.21,0.899-2.189,2.229-2.189c1.331,0,2.193,0.979,2.193,2.189
			c0,1.215-0.862,2.231-2.231,2.231H422.668z M421.024,181.784v-18.941h3.441v18.941H421.024z"/>
		<path d="M438.87,182.213c-5.087,0-9.08-3.756-9.08-9.741c0-6.342,4.187-10.058,9.394-10.058c5.438,0,9.116,3.951,9.116,9.705
			c0,7.043-4.892,10.094-9.389,10.094H438.87z M438.987,179.632c3.286,0,5.752-3.092,5.752-7.396c0-3.211-1.604-7.241-5.673-7.241
			c-4.03,0-5.792,3.757-5.792,7.358c0,4.148,2.346,7.278,5.675,7.278H438.987z"/>
		<path d="M453.625,167.971c0-1.996-0.041-3.563-0.156-5.128h3.051l0.194,3.094h0.079c0.941-1.762,3.132-3.522,6.262-3.522
			c2.624,0,6.692,1.564,6.692,8.062v11.309h-3.442v-10.918c0-3.053-1.136-5.637-4.384-5.637c-2.231,0-3.992,1.605-4.618,3.522
			c-0.157,0.432-0.236,1.058-0.236,1.605v11.427h-3.441V167.971z"/>
		<path d="M475.854,178.302c1.055,0.625,2.857,1.33,4.58,1.33c2.463,0,3.64-1.213,3.64-2.818c0-1.644-0.979-2.543-3.484-3.481
			c-3.445-1.251-5.048-3.092-5.048-5.361c0-3.053,2.503-5.557,6.536-5.557c1.917,0,3.598,0.508,4.615,1.172l-0.821,2.468
			c-0.743-0.434-2.113-1.098-3.873-1.098c-2.034,0-3.132,1.174-3.132,2.581c0,1.605,1.098,2.311,3.561,3.249
			c3.248,1.214,4.971,2.857,4.971,5.716c0,3.365-2.622,5.711-7.043,5.711c-2.076,0-3.993-0.546-5.325-1.328L475.854,178.302z"/>
	</g>
</g>
</svg>
